<svg xmlns="http://www.w3.org/2000/svg"  viewBox="0 0 100 100" width="100px" height="100px" baseProfile="basic"><path fill="#c7ede6" d="M86.212,57.157c1.135-2.155,1.785-4.605,1.785-7.21c0-6.621-4.159-12.257-10.001-14.478 c0-0.008,0.001-0.015,0.001-0.022c0-11.598-9.402-21-21-21c-9.784,0-17.981,6.701-20.313,15.757 c-1.476-0.485-3.048-0.757-4.687-0.757c-7.692,0-14.023,5.793-14.89,13.252c-5.204,1.1-9.11,5.716-9.11,11.248 c0,6.351,5.149,11.5,11.5,11.5c0.177,0,0.352-0.012,0.526-0.022c-0.004,0.175-0.026,0.346-0.026,0.522 c0,11.322,9.178,20.5,20.5,20.5c6.437,0,12.175-2.972,15.934-7.614c2.178,2.225,5.207,3.614,8.566,3.614 c4.65,0,8.674-2.65,10.666-6.518c1.052,0.334,2.171,0.518,3.334,0.518c6.075,0,11-4.925,11-11 C89.997,62.136,88.527,59.173,86.212,57.157z"/><path fill="#ff991f" d="M31.216,73.3c-0.836,0-1.516-0.68-1.516-1.516V51.216c0-0.836,0.68-1.516,1.516-1.516h39.568 c0.836,0,1.516,0.68,1.516,1.516v20.568c0,0.836-0.68,1.516-1.516,1.516H31.216z"/><path fill="#472b29" d="M70.784,50.4c0.45,0,0.816,0.366,0.816,0.816v20.569c0,0.45-0.366,0.816-0.816,0.816H31.216 c-0.45,0-0.816-0.366-0.816-0.816V51.216c0-0.45,0.366-0.816,0.816-0.816H70.784 M70.784,49H31.216 C29.992,49,29,49.992,29,51.216v20.569C29,73.008,29.992,74,31.216,74h39.569C72.008,74,73,73.008,73,71.784V51.216 C73,49.992,72.008,49,70.784,49L70.784,49z"/><path fill="#472b29" d="M29,45.985V31.251h4.774c1.809,0,2.989,0.074,3.538,0.221c0.843,0.221,1.55,0.702,2.12,1.442 c0.57,0.741,0.855,1.697,0.855,2.869c0,0.905-0.164,1.665-0.493,2.282c-0.328,0.617-0.745,1.101-1.25,1.452 c-0.506,0.352-1.02,0.584-1.543,0.698c-0.711,0.141-1.739,0.211-3.085,0.211h-1.94v5.558H29z M31.976,33.743v4.181h1.628 c1.173,0,1.956-0.077,2.352-0.231c0.396-0.154,0.705-0.395,0.93-0.724c0.224-0.328,0.336-0.71,0.336-1.145 c0-0.536-0.156-0.979-0.472-1.327c-0.315-0.348-0.713-0.566-1.196-0.653c-0.356-0.067-1.07-0.1-2.14-0.1H31.976z"/><path fill="#472b29" d="M42.055,40.497c0-0.938,0.231-1.846,0.693-2.724c0.463-0.878,1.118-1.548,1.965-2.01 c0.848-0.462,1.795-0.694,2.84-0.694c1.614,0,2.938,0.525,3.969,1.573s1.548,2.373,1.548,3.974c0,1.615-0.521,2.953-1.563,4.015 c-1.042,1.062-2.353,1.593-3.935,1.593c-0.978,0-1.91-0.221-2.798-0.663c-0.889-0.442-1.563-1.091-2.026-1.945 C42.287,42.764,42.055,41.723,42.055,40.497z M44.95,40.648c0,1.059,0.251,1.869,0.754,2.432c0.502,0.563,1.122,0.844,1.858,0.844 c0.738,0,1.356-0.281,1.854-0.844c0.5-0.563,0.749-1.38,0.749-2.452c0-1.045-0.249-1.849-0.749-2.412 c-0.499-0.563-1.117-0.844-1.854-0.844c-0.736,0-1.356,0.281-1.858,0.844C45.2,38.778,44.95,39.589,44.95,40.648z"/><path fill="#472b29" d="M57.985,45.985h-2.823V35.311h2.622v1.517c0.449-0.717,0.853-1.189,1.212-1.417 c0.357-0.228,0.764-0.342,1.221-0.342c0.642,0,1.263,0.178,1.859,0.533l-0.875,2.462c-0.476-0.308-0.918-0.462-1.327-0.462 c-0.396,0-0.73,0.109-1.005,0.327c-0.275,0.217-0.491,0.611-0.649,1.181c-0.158,0.569-0.237,1.762-0.237,3.578V45.985z"/><path fill="#472b29" d="M73,45.985h-2.823v-5.447c0-1.152-0.061-1.898-0.182-2.237c-0.12-0.338-0.315-0.601-0.588-0.789 c-0.271-0.188-0.598-0.282-0.979-0.282c-0.49,0-0.928,0.134-1.318,0.402c-0.388,0.268-0.655,0.623-0.799,1.066 c-0.144,0.442-0.216,1.26-0.216,2.452v4.834h-2.823V35.311h2.623v1.568c0.932-1.206,2.104-1.809,3.518-1.809 c0.623,0,1.193,0.113,1.708,0.337c0.516,0.224,0.907,0.511,1.171,0.859s0.449,0.744,0.553,1.186 C72.948,37.894,73,38.527,73,39.351V45.985z"/><path fill="#472b29" d="M37.916,53.951v5.083c0.856-1,1.877-1.5,3.065-1.5c0.61,0,1.16,0.113,1.651,0.34 c0.491,0.227,0.861,0.516,1.109,0.868c0.248,0.352,0.418,0.742,0.51,1.17c0.091,0.428,0.136,1.091,0.136,1.99v5.876h-2.65v-5.291 c0-1.05-0.051-1.717-0.152-2c-0.1-0.283-0.278-0.508-0.532-0.674c-0.255-0.167-0.574-0.25-0.957-0.25 c-0.44,0-0.833,0.107-1.179,0.321c-0.346,0.214-0.599,0.536-0.759,0.967c-0.161,0.43-0.241,1.067-0.241,1.91v5.018h-2.65V53.951 H37.916z"/><path fill="#472b29" d="M53.668,67.778v-1.5c-0.364,0.535-0.844,0.956-1.438,1.264c-0.594,0.308-1.221,0.462-1.881,0.462 c-0.673,0-1.277-0.147-1.812-0.443c-0.534-0.295-0.92-0.71-1.159-1.245c-0.24-0.534-0.359-1.273-0.359-2.216v-6.338h2.651v4.602 c0,1.409,0.048,2.272,0.146,2.589c0.098,0.317,0.276,0.569,0.534,0.754c0.258,0.186,0.585,0.278,0.981,0.278 c0.452,0,0.858-0.124,1.216-0.372c0.358-0.248,0.604-0.557,0.735-0.924c0.132-0.368,0.198-1.269,0.198-2.702v-4.225h2.651v10.016 H53.668z"/><path fill="#472b29" d="M58.761,67.778V53.951h2.65v4.98c0.818-0.93,1.786-1.396,2.905-1.396 c1.22,0,2.23,0.442,3.028,1.325c0.799,0.883,1.197,2.152,1.197,3.806c0,1.71-0.407,3.028-1.221,3.952 c-0.814,0.924-1.803,1.386-2.966,1.386c-0.573,0-1.136-0.143-1.694-0.429c-0.556-0.286-1.036-0.709-1.438-1.269v1.472H58.761z M61.392,62.553c0,1.038,0.162,1.805,0.489,2.302c0.46,0.704,1.069,1.056,1.83,1.056c0.585,0,1.084-0.25,1.496-0.75 c0.412-0.5,0.618-1.287,0.618-2.363c0-1.144-0.208-1.969-0.623-2.475c-0.415-0.506-0.947-0.76-1.593-0.76 c-0.636,0-1.164,0.247-1.585,0.741S61.392,61.547,61.392,62.553z"/><path fill="#472b29" d="M71.5,31.75h-15c-0.138,0-0.25-0.112-0.25-0.25s0.112-0.25,0.25-0.25h15 c0.138,0,0.25,0.112,0.25,0.25S71.638,31.75,71.5,31.75z"/><path fill="#472b29" d="M54.5,31.75h-4c-0.138,0-0.25-0.112-0.25-0.25s0.112-0.25,0.25-0.25h4c0.138,0,0.25,0.112,0.25,0.25 S54.638,31.75,54.5,31.75z"/><path fill="#472b29" d="M48.5,31.75h-6c-0.138,0-0.25-0.112-0.25-0.25s0.112-0.25,0.25-0.25h6c0.138,0,0.25,0.112,0.25,0.25 S48.638,31.75,48.5,31.75z"/><path fill="#472b29" d="M56.261,53.728h-3.03c-0.138,0-0.25-0.112-0.25-0.25s0.112-0.25,0.25-0.25h3.03 c0.138,0,0.25,0.112,0.25,0.25S56.398,53.728,56.261,53.728z"/><path fill="#472b29" d="M51.265,53.728H40.956c-0.138,0-0.25-0.112-0.25-0.25s0.112-0.25,0.25-0.25h10.309 c0.138,0,0.25,0.112,0.25,0.25S51.402,53.728,51.265,53.728z"/><path fill="#fff" d="M14.402,49H4.497c-0.276,0-0.5-0.224-0.5-0.5s0.224-0.5,0.5-0.5h9.905c0.276,0,0.5,0.224,0.5,0.5 S14.679,49,14.402,49z"/><path fill="#fff" d="M17.497,49h-1c-0.276,0-0.5-0.224-0.5-0.5s0.224-0.5,0.5-0.5h1c0.276,0,0.5,0.224,0.5,0.5 S17.774,49,17.497,49z"/><path fill="#fff" d="M22.488,51h-8.991c-0.276,0-0.5-0.224-0.5-0.5s0.224-0.5,0.5-0.5h8.991c0.276,0,0.5,0.224,0.5,0.5 S22.764,51,22.488,51z"/><path fill="#fff" d="M11.497,51h-1c-0.276,0-0.5-0.224-0.5-0.5s0.224-0.5,0.5-0.5h1c0.276,0,0.5,0.224,0.5,0.5 S11.774,51,11.497,51z"/><path fill="#fff" d="M8.497,51h-2c-0.276,0-0.5-0.224-0.5-0.5s0.224-0.5,0.5-0.5h2c0.276,0,0.5,0.224,0.5,0.5 S8.774,51,8.497,51z"/><path fill="#fff" d="M14.497,53h-2c-0.276,0-0.5-0.224-0.5-0.5s0.224-0.5,0.5-0.5h2c0.276,0,0.5,0.224,0.5,0.5 S14.773,53,14.497,53z"/><path fill="#fff" d="M17.497,44c-0.177,0-0.823,0-1,0c-0.276,0-0.5,0.224-0.5,0.5s0.224,0.5,0.5,0.5 c0.177,0,0.823,0,1,0c0.276,0,0.5-0.224,0.5-0.5S17.773,44,17.497,44z"/><path fill="#fff" d="M17.497,46c-0.177,0-4.823,0-5,0c-0.276,0-0.5,0.224-0.5,0.5s0.224,0.5,0.5,0.5 c0.177,0,4.823,0,5,0c0.276,0,0.5-0.224,0.5-0.5S17.773,46,17.497,46z"/><path fill="#fff" d="M22.497,48c-0.177,0-2.823,0-3,0c-0.276,0-0.5,0.224-0.5,0.5s0.224,0.5,0.5,0.5 c0.177,0,2.823,0,3,0c0.276,0,0.5-0.224,0.5-0.5S22.773,48,22.497,48z"/><path fill="#fff" d="M88.497,66h-10c-0.276,0-0.5-0.224-0.5-0.5s0.224-0.5,0.5-0.5h10c0.276,0,0.5,0.224,0.5,0.5 S88.773,66,88.497,66z"/><path fill="#fff" d="M92.497,66h-2c-0.276,0-0.5-0.224-0.5-0.5s0.224-0.5,0.5-0.5h2c0.276,0,0.5,0.224,0.5,0.5 S92.773,66,92.497,66z"/><g><path fill="#fff" d="M97.497,68h-10c-0.276,0-0.5-0.224-0.5-0.5s0.224-0.5,0.5-0.5h10c0.276,0,0.5,0.224,0.5,0.5 S97.774,68,97.497,68z"/></g><g><path fill="#fff" d="M85.497,68h-1c-0.276,0-0.5-0.224-0.5-0.5s0.224-0.5,0.5-0.5h1c0.276,0,0.5,0.224,0.5,0.5 S85.773,68,85.497,68z"/></g><g><path fill="#fff" d="M82.372,68h-1.875c-0.276,0-0.5-0.224-0.5-0.5s0.224-0.5,0.5-0.5h1.875c0.276,0,0.5,0.224,0.5,0.5 S82.648,68,82.372,68z"/></g><g><path fill="#fff" d="M91.497,64h-5c-0.276,0-0.5-0.224-0.5-0.5s0.224-0.5,0.5-0.5h5c0.276,0,0.5,0.224,0.5,0.5 S91.774,64,91.497,64z"/></g><g><path fill="#fff" d="M88.497,70h-2c-0.276,0-0.5-0.224-0.5-0.5s0.224-0.5,0.5-0.5h2c0.276,0,0.5,0.224,0.5,0.5 S88.773,70,88.497,70z"/></g><g><path fill="#fdfcef" d="M68,28h-3.003c-1.933-0.053-3.5-1.62-3.5-3.553c0-1.781,1.335-3.234,3.055-3.455 c-0.028-0.179-0.055-0.358-0.055-0.545c0-1.933,1.567-3.5,3.5-3.5c1.032,0,1.95,0.455,2.59,1.165 c0.384-1.808,1.987-3.165,3.91-3.165c2.209,0,4,1.791,4,4c0,0.191-0.03,0.374-0.056,0.558c0.428-0.344,0.965-0.558,1.556-0.558 c1.228,0,2.245,0.887,2.455,2.055c0.179-0.028,0.358-0.055,0.545-0.055c1.933,0,3.5,1.567,3.5,3.5s-1.567,3.5-3.5,3.553H75l0,0 H68L68,28z"/><path fill="#472b29" d="M66.747,23.044c0.138,0,0.25-0.112,0.25-0.25c0-1.223-0.995-2.218-2.218-2.218 c-0.034,0.009-0.737-0.001-1.244,0.136c-0.133,0.036-0.212,0.173-0.176,0.306c0.036,0.134,0.173,0.213,0.306,0.176 c0.444-0.12,1.1-0.12,1.113-0.118c0.948,0,1.719,0.771,1.719,1.718C66.497,22.932,66.609,23.044,66.747,23.044z"/><circle cx="73.5" cy="27.5" r=".5" fill="#472b29"/><path fill="#472b29" d="M61.165,25.157C61.67,26.889,63.369,28,65.173,28h3.324c0.276,0,0.5-0.224,0.5-0.5 s-0.224-0.5-0.5-0.5h-3.395c-1.243,0-2.435-0.701-2.886-1.859c-0.755-1.939,0.536-3.861,2.399-4.1 c0.134-0.018,0.255-0.088,0.336-0.196c0.081-0.108,0.115-0.244,0.094-0.377c-0.024-0.153-0.049-0.308-0.049-0.468 c0-1.654,1.346-3,3-3c0.85,0,1.638,0.355,2.219,1c0.125,0.139,0.321,0.198,0.5,0.148c0.182-0.049,0.321-0.195,0.36-0.379 C71.417,16.165,72.856,15,74.497,15c1.93,0,3.5,1.57,3.5,3.5c0,0.143-0.021,0.28-0.041,0.418 c-0.029,0.203,0.063,0.438,0.242,0.54s0.396,0.118,0.556-0.01C79.118,19.155,79.548,19,79.997,19 c0.966,0,1.792,0.691,1.963,1.644c0.048,0.267,0.296,0.446,0.569,0.405C82.682,21.025,82.837,21,82.997,21 c1.97,0,3.503,1.908,2.846,3.974C85.447,26.218,84.206,27,82.901,27h-7.404c-0.276,0-0.5,0.224-0.5,0.5s0.224,0.5,0.5,0.5h7.343 c1.92,0,3.687-1.282,4.071-3.163C87.436,22.267,85.476,20,82.997,20c-0.059,0-0.116,0.002-0.174,0.006 C82.409,18.82,81.286,18,79.997,18c-0.349,0-0.689,0.061-1.011,0.18C78.821,15.847,76.87,14,74.497,14 c-1.831,0-3.466,1.127-4.153,2.774C69.663,16.276,68.842,16,67.997,16c-2.206,0-4,1.794-4,4c0,0.048,0.001,0.095,0.004,0.142 C61.899,20.682,60.497,22.869,61.165,25.157z"/><path fill="#472b29" d="M70.497,27c0.159,0,0.841,0,1,0c0.276,0,0.5,0.224,0.5,0.5s-0.224,0.5-0.5,0.5 c-0.159,0-0.841,0-1,0c-0.276,0-0.5-0.224-0.5-0.5S70.221,27,70.497,27z"/></g><g><path fill="#fdfcef" d="M22,83h-6.003c-2.485-0.053-4.5-2.068-4.5-4.553c0-2.333,1.782-4.229,4.055-4.455 c-0.022-0.181-0.055-0.358-0.055-0.545c0-2.485,2.015-4.5,4.5-4.5c1.438,0,2.703,0.686,3.527,1.736 c0.14-2.636,2.302-4.736,4.973-4.736c2.761,0,5,2.239,5,5c0,0.446-0.077,0.87-0.187,1.282c0.642-0.777,1.6-1.282,2.687-1.282 c1.781,0,3.234,1.335,3.455,3.055c0.181-0.022,0.358-0.055,0.545-0.055c2.485,0,4.5,2.015,4.5,4.5s-2.015,4.5-4.5,4.553h-9.5H25 v1h-3V83z"/><path fill="#472b29" d="M28.5,65c3.033,0,5.5,2.467,5.5,5.5c0,0.016,0,0.031,0,0.047C34.602,70.192,35.29,70,36,70 c1.831,0,3.411,1.261,3.858,3.005C39.905,73.002,39.952,73,40,73c3.099,0,5.549,2.834,4.893,6.047 C44.413,81.398,42.204,83,39.804,83H25.125c-0.276,0-0.5-0.224-0.5-0.5s0.224-0.5,0.5-0.5h14.718c1.92,0,3.687-1.282,4.071-3.163 C44.439,76.267,42.479,74,40,74c-0.117,0-0.23,0.017-0.343,0.032l-0.141,0.019c-0.021,0.003-0.041,0.004-0.062,0.004 c-0.246,0-0.462-0.185-0.495-0.437C38.768,72.125,37.496,71,36,71c-0.885,0-1.723,0.401-2.301,1.1 c-0.098,0.118-0.241,0.182-0.386,0.182c-0.078,0-0.156-0.018-0.228-0.056c-0.209-0.107-0.314-0.346-0.254-0.573 c0.16-0.6,0.202-1.069,0.147-1.549c-0.24-2.127-1.959-3.909-4.092-4.088c-2.551-0.215-4.725,1.728-4.859,4.246 c-0.011,0.208-0.15,0.387-0.349,0.45c-0.05,0.016-0.101,0.024-0.152,0.024c-0.15,0-0.296-0.069-0.392-0.192 C22.362,69.563,21.221,69,20,69c-2.206,0-4,1.794-4,4c0,0.117,0.017,0.23,0.032,0.343l0.019,0.141 c0.016,0.134-0.022,0.268-0.106,0.373c-0.084,0.105-0.207,0.172-0.34,0.185c-2.352,0.234-4.042,2.429-3.504,4.865 C12.509,80.76,14.275,82,16.173,82h5.952c0.276,0,0.5,0.224,0.5,0.5s-0.224,0.5-0.5,0.5h-5.938c-2.467,0-4.708-1.704-5.115-4.138 c-0.462-2.763,1.344-5.22,3.931-5.74C15.001,73.082,15,73.041,15,73c0-2.757,2.243-5,5-5c1.176,0,2.293,0.416,3.183,1.164 C23.781,66.76,25.945,65,28.5,65L28.5,65z"/><path fill="#472b29" d="M29.997,72.447c1.403,0,2.609,0.999,2.913,2.341c0.367-0.222,0.786-0.341,1.212-0.341 c1.202,0,2.198,0.897,2.353,2.068c0.203-0.045,0.396-0.068,0.585-0.068c1.529,0,2.811,1.2,2.918,2.732 c0.009,0.138-0.094,0.257-0.232,0.267c-0.006,0-0.012,0-0.018,0c-0.13,0-0.24-0.101-0.249-0.232 c-0.089-1.271-1.151-2.268-2.419-2.268c-0.229,0-0.47,0.042-0.738,0.127c-0.022,0.007-0.045,0.01-0.067,0.01 c-0.055,0-0.11-0.02-0.156-0.054c-0.064-0.047-0.102-0.129-0.102-0.209c0-1.034-0.841-1.875-1.875-1.875 c-0.447,0-0.885,0.168-1.231,0.473c-0.047,0.041-0.106,0.063-0.165,0.063c-0.032,0-0.063-0.006-0.093-0.019 c-0.088-0.035-0.148-0.117-0.155-0.212c-0.102-1.292-1.191-2.305-2.479-2.305c-0.208,0-0.425,0.034-0.682,0.107 c-0.023,0.007-0.047,0.01-0.07,0.01c-0.109,0-0.207-0.073-0.239-0.182c-0.038-0.133,0.039-0.271,0.172-0.309 C29.48,72.487,29.741,72.447,29.997,72.447L29.997,72.447z"/></g></svg>